# File created by Blade
# Date/Time:  Wed Apr 08 14:10:35 2015
# Frame Rate: 120.000 fps
#------------------------------------------------------
:FULLY-SPECIFIED
:DEGREES
665
root 1.379937 33.768516 17.192773 12.452564 1.099079 -0.650677
Spine -12.881073 -5.686588 -0.502968
Head 5.796189 -3.069581 -0.640961
LeftShoulder -24.158802 40.267291 20.622590
LeftArm 53.445488 -64.564771 -55.724714
LeftForeArm 10.844107 -0.000000 -0.229014
LeftHand 2.493725 0.000000 8.351881
LeftHandThumb1 -26.253704 0.000000 33.147579
RightShoulder -8.950459 2.251249 -33.232100
RightArm 9.435754 15.000592 34.841666
RightForeArm -15.680482 -0.000000 3.768052
RightHand 2.902919 -0.000000 -2.301743
RightHandThumb1 -24.326973 -0.000000 -32.862282
LeftUpLeg -7.424499 -6.305002 0.482706
LeftLeg 7.584598 -0.000000 -0.000000
LeftFoot -1.550089 6.618716 -15.689456
LeftToeBase -17.873216 -0.000000 0.000000
RightUpLeg -1.508330 7.190044 3.211273
RightLeg -5.495155 -0.000000 0.000000
RightFoot 6.847053 -18.694267 3.662331
RightToeBase -16.046899 -0.000000 0.000000
666
root 1.405321 33.670883 17.116404 12.477521 1.086037 -0.696547
Spine -12.835284 -5.580643 -0.435209
Head 5.207074 -3.184178 -0.607793
LeftShoulder -24.363509 40.297691 20.484592
LeftArm 53.755843 -64.981892 -55.958257
LeftForeArm 10.991114 -0.000000 -0.457353
LeftHand 2.188326 -0.000000 8.261294
LeftHandThumb1 -26.253704 0.000000 33.147579
RightShoulder -9.153234 2.331903 -33.306056
RightArm 9.344614 15.247595 34.497800
RightForeArm -16.054272 0.000000 3.492754
RightHand 2.641237 -0.000000 -1.800247
RightHandThumb1 -24.326973 -0.000000 -32.862282
LeftUpLeg -7.310832 -5.532354 0.410784
LeftLeg 7.155053 -0.000000 -0.000000
LeftFoot -2.622043 6.261208 -16.662945
LeftToeBase -16.623595 -0.000000 0.000000
RightUpLeg -1.539472 7.345754 3.178294
RightLeg -5.520268 -0.000000 0.000000
RightFoot 5.581928 -18.681716 3.900254
RightToeBase -15.142078 -0.000000 0.000000
667
root 1.438405 33.572646 17.036918 12.488572 1.064600 -0.664807
Spine -12.767486 -5.526437 -0.439173
Head 4.649040 -3.267891 -0.563978
LeftShoulder -24.506642 40.386354 20.458158
LeftArm 54.155337 -65.466387 -56.592680
LeftForeArm 11.022166 -0.000000 -0.484712
LeftHand 2.193042 -0.000000 7.669114
LeftHandThumb1 -26.253704 0.000000 33.147579
RightShoulder -9.280517 2.449690 -33.353261
RightArm 9.145684 15.392250 34.146314
RightForeArm -16.249977 -0.000000 3.404171
RightHand 2.171993 0.000000 -1.374817
RightHandThumb1 -24.326973 -0.000000 -32.862282
LeftUpLeg -7.112427 -5.180581 0.273348
LeftLeg 6.572604 -0.000000 -0.000000
LeftFoot -3.327712 6.085350 -16.917437
LeftToeBase -15.250292 -0.000000 0.000000
RightUpLeg -1.595050 7.452158 3.045161
RightLeg -5.472464 -0.000000 0.000000
RightFoot 4.152947 -18.506912 4.283533
RightToeBase -14.091661 -0.000000 0.000000
668
root 1.461999 33.474598 16.951416 12.506137 1.060985 -0.671565
Spine -12.677518 -5.501958 -0.422780
Head 4.059834 -3.328454 -0.495839
LeftShoulder -24.661276 40.232934 20.430621
LeftArm 54.022348 -65.714728 -56.540315
LeftForeArm 11.159674 -0.000000 -0.631338
LeftHand 1.982474 -0.000000 7.868291
LeftHandThumb1 -26.253704 0.000000 33.147579
RightShoulder -9.393732 2.630323 -33.421890
RightArm 8.910155 15.528791 33.865461
RightForeArm -16.539844 0.000000 3.291815
RightHand 1.793901 -0.000000 -0.765479
RightHandThumb1 -24.326973 -0.000000 -32.862282
LeftUpLeg -7.097594 -4.508527 0.175777
LeftLeg 6.350605 -0.000000 -0.000000
LeftFoot -4.065084 5.277724 -16.975343
LeftToeBase -13.441925 -0.000000 0.000000
RightUpLeg -1.710567 7.543519 2.962676
RightLeg -5.356800 -0.000000 0.000000
RightFoot 2.839035 -18.391892 4.509204
RightToeBase -13.133949 -0.000000 0.000000
669
root 1.487748 33.379851 16.861047 12.538687 1.098497 -0.668029
Spine -12.578784 -5.533913 -0.405311
Head 3.429662 -3.358632 -0.398470
LeftShoulder -24.798493 40.250265 20.374264
LeftArm 54.056113 -66.062451 -56.814610
LeftForeArm 11.311511 -0.000000 -0.611023
LeftHand 2.398157 -0.000000 7.363885
LeftHandThumb1 -26.253704 0.000000 33.147579
RightShoulder -9.521612 2.745649 -33.422894
RightArm 8.790208 15.813352 33.616676
RightForeArm -16.915763 -0.000000 3.148159
RightHand 1.539044 -0.000000 -0.179569
RightHandThumb1 -24.326973 -0.000000 -32.862282
LeftUpLeg -7.105270 -4.086718 0.103258
LeftLeg 6.167919 -0.000000 -0.000000
LeftFoot -4.876158 4.732352 -16.747129
LeftToeBase -12.976302 -0.000000 0.000000
RightUpLeg -1.847167 7.633895 2.859489
RightLeg -5.238846 -0.000000 0.000000
RightFoot 1.360302 -18.248790 4.959449
RightToeBase -11.590407 -0.000000 0.000000
670
root 1.507591 33.286672 16.768062 12.569436 1.187680 -0.679929
Spine -12.477986 -5.606741 -0.378359
Head 2.850217 -3.426841 -0.305372
LeftShoulder -24.866784 39.921538 20.497218
LeftArm 53.516039 -66.117447 -56.506163
LeftForeArm 11.589398 -0.000000 -0.642120
LeftHand 2.113784 0.000000 7.330351
LeftHandThumb1 -26.253704 0.000000 33.147579
RightShoulder -9.603412 2.884692 -33.422000
RightArm 8.569884 15.869529 33.355700
RightForeArm -17.014171 -0.000000 3.044635
RightHand 0.969199 -0.000000 0.341167
RightHandThumb1 -24.326973 -0.000000 -32.862282
LeftUpLeg -7.090146 -3.822440 0.088597
LeftLeg 5.890879 -0.000000 -0.000000
LeftFoot -5.437127 4.495456 -16.354242
LeftToeBase -13.430049 -0.000000 0.000000
RightUpLeg -2.021090 7.658018 2.796030
RightLeg -5.062198 -0.000000 0.000000
RightFoot -0.098003 -18.111657 5.353505
RightToeBase -10.319722 -0.000000 0.000000
671
root 1.526121 33.197818 16.672344 12.591821 1.296831 -0.681762
Spine -12.332164 -5.665546 -0.389667
Head 2.230114 -3.381896 -0.248565
LeftShoulder -25.000484 39.730829 20.506309
LeftArm 53.107379 -66.121632 -56.215189
LeftForeArm 11.755575 -0.000000 -0.732204
LeftHand 1.796599 -0.000000 7.433513
LeftHandThumb1 -26.253704 0.000000 33.147579
RightShoulder -9.784752 2.960031 -33.381905
RightArm 8.468432 15.984729 33.173843
RightForeArm -17.059844 0.000000 2.853532
RightHand 0.665717 -0.000000 0.675971
RightHandThumb1 -24.326973 -0.000000 -32.862282
LeftUpLeg -7.012209 -3.737960 0.093934
LeftLeg 5.460839 -0.000000 -0.000000
LeftFoot -6.098915 4.132294 -16.617827
LeftToeBase -12.121039 -0.000000 0.000000
RightUpLeg -2.208014 7.627609 2.731783
RightLeg -4.864840 -0.000000 0.000000
RightFoot -1.570169 -17.955203 5.797467
RightToeBase -9.107887 -0.000000 0.000000
672
root 1.548653 33.113698 16.574799 12.607058 1.510762 -0.694790
Spine -12.177847 -5.834087 -0.322618
Head 1.620265 -3.413695 -0.191897
LeftShoulder -25.158340 39.920899 20.328909
LeftArm 53.126271 -66.325737 -56.434855
LeftForeArm 11.892203 -0.000000 -0.739422
LeftHand 1.516327 0.000000 7.295395
LeftHandThumb1 -26.253704 0.000000 33.147579
RightShoulder -9.965395 3.073288 -33.400647
RightArm 8.375205 16.028793 33.059928
RightForeArm -17.015209 0.000000 2.669087
RightHand 0.505967 -0.000000 1.053727
RightHandThumb1 -24.326973 -0.000000 -32.862282
LeftUpLeg -6.935926 -3.839808 0.118948
LeftLeg 5.020803 -0.000000 -0.000000
LeftFoot -6.899321 3.861155 -16.747752
LeftToeBase -10.888380 -0.000000 0.000000
RightUpLeg -2.392868 7.515684 2.710164
RightLeg -4.657835 -0.000000 0.000000
RightFoot -2.917259 -17.885909 6.094885
RightToeBase -8.211330 -0.000000 0.000000
673
root 1.570338 33.034940 16.475855 12.617898 1.726434 -0.711296
Spine -12.010075 -5.968246 -0.256854
Head 1.003122 -3.492005 -0.148119
LeftShoulder -25.325918 40.140655 20.054896
LeftArm 53.102493 -66.516937 -56.493768
LeftForeArm 11.727144 0.000000 -0.848331
LeftHand 1.801196 -0.000000 6.652985
LeftHandThumb1 -26.253704 0.000000 33.147579
RightShoulder -10.123634 3.166861 -33.425989
RightArm 8.211555 16.082186 32.986479
RightForeArm -16.928382 -0.000000 2.500498
RightHand 0.314719 0.000000 1.349773
RightHandThumb1 -24.326973 -0.000000 -32.862282
LeftUpLeg -6.857903 -3.918942 0.144812
LeftLeg 4.591324 -0.000000 -0.000000
LeftFoot -7.651497 3.519334 -17.042151
LeftToeBase -10.163730 -0.000000 0.000000
RightUpLeg -2.600910 7.360211 2.711862
RightLeg -4.407828 -0.000000 0.000000
RightFoot -4.184096 -17.813287 6.299347
RightToeBase -7.427502 -0.000000 0.000000
674
root 1.593956 32.963722 16.380994 12.593227 1.942913 -0.699823
Spine -11.825140 -6.127637 -0.223205
Head 0.459735 -3.558104 -0.116673
LeftShoulder -25.417244 40.086115 19.983927
LeftArm 53.411904 -66.652637 -56.982868
LeftForeArm 12.081869 0.000000 -1.071948
LeftHand 1.728188 -0.000000 6.187363
LeftHandThumb1 -26.253704 0.000000 33.147579
RightShoulder -10.252621 3.153467 -33.402028
RightArm 8.134808 16.327057 32.971968
RightForeArm -16.948145 -0.000000 2.339438
RightHand 0.108969 -0.000000 1.515254
RightHandThumb1 -24.326973 -0.000000 -32.862282
LeftUpLeg -6.750969 -3.999002 0.121051
LeftLeg 4.181910 -0.000000 -0.000000
LeftFoot -8.223297 3.533501 -16.693248
LeftToeBase -9.181683 -0.000000 0.000000
RightUpLeg -2.701249 7.340080 2.693771
RightLeg -4.316562 -0.000000 0.000000
RightFoot -5.275432 -17.956901 6.397878
RightToeBase -6.481594 -0.000000 0.000000
675
root 1.614371 32.902930 16.287186 12.571202 2.172712 -0.738650
Spine -11.652913 -6.275741 -0.134380
Head -0.051434 -3.597652 -0.094063
LeftShoulder -25.389698 39.874310 20.015429
LeftArm 52.742240 -66.494933 -56.538021
LeftForeArm 11.995577 -0.000000 -1.271005
LeftHand 1.744976 -0.000000 6.011230
LeftHandThumb1 -26.253704 0.000000 33.147579
RightShoulder -10.411993 3.178283 -33.373551
RightArm 8.055331 16.369026 32.984626
RightForeArm -16.836423 0.000000 2.216039
RightHand -0.025833 -0.000000 1.746811
RightHandThumb1 -24.326973 -0.000000 -32.862282
LeftUpLeg -6.677017 -4.087741 0.143330
LeftLeg 3.798044 -0.000000 -0.000000
LeftFoot -8.726067 3.433416 -16.593152
LeftToeBase -8.319012 -0.000000 0.000000
RightUpLeg -2.825582 7.271877 2.752987
RightLeg -4.213873 -0.000000 0.000000
RightFoot -6.225155 -18.196416 6.482027
RightToeBase -5.604500 -0.000000 0.000000
676
root 1.637569 32.853834 16.193617 12.557064 2.406359 -0.738211
Spine -11.492662 -6.447817 -0.089304
Head -0.516085 -3.617679 -0.091699
LeftShoulder -25.414055 39.799113 19.980264
LeftArm 52.606236 -66.434891 -56.702884
LeftForeArm 11.908902 -0.000000 -1.360968
LeftHand 1.605683 -0.000000 5.624558
LeftHandThumb1 -26.253704 0.000000 33.147579
RightShoulder -10.530882 3.168043 -33.270716
RightArm 8.010405 16.372445 32.974291
RightForeArm -16.749622 -0.000000 2.039409
RightHand -0.162068 -0.000000 1.873584
RightHandThumb1 -24.326973 -0.000000 -32.862282
LeftUpLeg -6.620836 -4.270700 0.119080
LeftLeg 3.397705 -0.000000 -0.000000
LeftFoot -9.026382 3.502698 -16.471155
LeftToeBase -8.477317 -0.000000 0.000000
RightUpLeg -2.897391 7.292015 2.766819
RightLeg -4.244253 -0.000000 0.000000
RightFoot -6.977161 -18.553404 6.478228
RightToeBase -4.882648 -0.000000 0.000000
677
root 1.658044 32.819780 16.103479 12.541949 2.654837 -0.766344
Spine -11.355862 -6.618018 -0.012348
Head -0.918558 -3.729359 -0.064440
LeftShoulder -25.466177 39.803277 19.822881
LeftArm 52.663007 -66.365370 -56.949925
LeftForeArm 11.831627 -0.000000 -1.515715
LeftHand 1.459304 -0.000000 5.498986
LeftHandThumb1 -26.253704 0.000000 33.147579
RightShoulder -10.596365 3.117754 -33.142027
RightArm 7.853270 16.394295 32.976471
RightForeArm -16.741103 0.000000 2.077830
RightHand -0.376772 -0.000000 1.870196
RightHandThumb1 -24.326973 -0.000000 -32.862282
LeftUpLeg -6.549805 -4.510659 0.124582
LeftLeg 2.952273 -0.000000 -0.000000
LeftFoot -9.297873 3.840842 -16.063639
LeftToeBase -8.033234 -0.000000 0.000000
RightUpLeg -2.970343 7.275108 2.813915
RightLeg -4.274969 -0.000000 0.000000
RightFoot -7.521500 -18.904349 6.505526
RightToeBase -4.526647 -0.000000 0.000000
